<svg viewBox="0 0 32 32" xmlns="http://www.w3.org/2000/svg">
  <g fill-rule="nonzero" fill="none">
    <path d="m10.803 4.78 2.003 3.831h9.715c3.275 0 4.871-3.232 4.871-3.232L30.207.027H12.02c-.947-.027-2.68 1.956-1.218 4.754Z" fill="#28CC8B"/>
    <path d="M16.703 20.129 8.61 4.781C7.07 1.874 8.991.516 10.127 0H8.99C7.177 0 5.337.896 4.606 2.31c-.055.108-2.057 3.856-2.057 3.856-1.272 2.418-.433 4.672.894 7.172L13.32 32s3.058-5.813 3.491-6.628c.866-1.657.92-3.287-.108-5.243Z" fill="#17A4EA"/>
    <path d="M24.66 10.54H13.833l4.195 7.905c1.623-.19 3.111-1.25 3.87-2.69 0 .028 2.76-5.215 2.76-5.215Z" fill="#FFCC69"/>
  </g>
</svg>
