<svg width="96" height="96" viewBox="0 0 96 96" fill="none" xmlns="http://www.w3.org/2000/svg">
<path d="M64.071 73.7143H31.9282C17.7265 73.7143 6.21387 62.2017 6.21387 48.0001C6.21387 33.7984 17.7265 22.2858 31.9282 22.2858H64.071C78.2724 22.2858 89.7853 33.7984 89.7853 48.0001C89.7853 62.2017 78.2724 73.7143 64.071 73.7143Z" stroke="#181C3A" stroke-width="6" stroke-linecap="round" stroke-linejoin="round"/>
<path d="M19.0713 48.0001C19.0713 49.6885 19.4038 51.3604 20.05 52.9203C20.6961 54.4802 21.6432 55.8976 22.8371 57.0915C24.031 58.2854 25.4483 59.2324 27.0082 59.8785C28.5681 60.5247 30.24 60.8572 31.9284 60.8572C33.6169 60.8572 35.2887 60.5247 36.8486 59.8785C38.4085 59.2324 39.8259 58.2854 41.0198 57.0915C42.2137 55.8976 43.1608 54.4802 43.8069 52.9203C44.453 51.3604 44.7856 49.6885 44.7856 48.0001C44.7856 44.5902 43.431 41.3199 41.0198 38.9087C38.6086 36.4975 35.3384 35.1429 31.9284 35.1429C28.5185 35.1429 25.2482 36.4975 22.8371 38.9087C20.4259 41.3199 19.0713 44.5902 19.0713 48.0001Z" stroke="#FED200" stroke-width="6" stroke-linecap="round" stroke-linejoin="round"/>
</svg>
