<svg width="96" height="96" viewBox="0 0 96 96" fill="none" xmlns="http://www.w3.org/2000/svg">
<path d="M80.143 9.42859H15.8573C12.3069 9.42859 9.42871 12.3068 9.42871 15.8572V35.1429C9.42871 38.6932 12.3069 41.5714 15.8573 41.5714H80.143C83.6935 41.5714 86.5716 38.6932 86.5716 35.1429V15.8572C86.5716 12.3068 83.6935 9.42859 80.143 9.42859Z" stroke="#FED200" stroke-width="6" stroke-linecap="round" stroke-linejoin="round"/>
<path d="M80.143 54.4286H15.8573C12.3069 54.4286 9.42871 57.3068 9.42871 60.8572V80.1429C9.42871 83.6934 12.3069 86.5714 15.8573 86.5714H80.143C83.6935 86.5714 86.5716 83.6934 86.5716 80.1429V60.8572C86.5716 57.3068 83.6935 54.4286 80.143 54.4286Z" stroke="#181C3A" stroke-width="6" stroke-linecap="round" stroke-linejoin="round"/>
</svg>
