<svg width="96" height="96" viewBox="0 0 96 96" fill="none" xmlns="http://www.w3.org/2000/svg">
<path d="M6.21387 19.0714C6.21387 15.521 9.09204 12.6428 12.6424 12.6428H83.3567C86.9072 12.6428 89.7853 15.521 89.7853 19.0714V76.9285C89.7853 80.479 86.9072 83.3571 83.3567 83.3571H12.6424C9.09204 83.3571 6.21387 80.479 6.21387 76.9285V19.0714Z" stroke="#181C3A" stroke-width="6" stroke-linecap="round" stroke-linejoin="round"/>
<path d="M35.1426 31.9286C35.1426 30.1535 36.5817 28.7144 38.3569 28.7144H57.6426C59.4178 28.7144 60.8569 30.1535 60.8569 31.9286V64.0715C60.8569 65.8467 59.4178 67.2858 57.6426 67.2858H38.3569C36.5817 67.2858 35.1426 65.8467 35.1426 64.0715V31.9286Z" stroke="#FED200" stroke-width="6" stroke-linecap="round" stroke-linejoin="round"/>
</svg>
