<svg width="96" height="96" viewBox="0 0 96 96" fill="none" xmlns="http://www.w3.org/2000/svg">
<path d="M38.3574 9.42847H57.6431" stroke="#181C3A" stroke-width="6" stroke-linecap="round" stroke-linejoin="round"/>
<path d="M38.3574 86.5713H57.6431" stroke="#181C3A" stroke-width="6" stroke-linecap="round" stroke-linejoin="round"/>
<path d="M9.42871 38.3569V57.6426" stroke="#181C3A" stroke-width="6" stroke-linecap="round" stroke-linejoin="round"/>
<path d="M9.42871 73.7141V80.1427C9.42871 83.6932 12.3069 86.5713 15.8573 86.5713H22.2859" stroke="#181C3A" stroke-width="6" stroke-linecap="round" stroke-linejoin="round"/>
<path d="M73.7148 86.5713H80.1434C83.6939 86.5713 86.572 83.6932 86.572 80.1427V73.7141" stroke="#181C3A" stroke-width="6" stroke-linecap="round" stroke-linejoin="round"/>
<path d="M86.572 22.2856V15.857C86.572 12.3067 83.6939 9.42847 80.1434 9.42847H73.7148" stroke="#181C3A" stroke-width="6" stroke-linecap="round" stroke-linejoin="round"/>
<path d="M9.42871 22.2856V15.857C9.42871 12.3067 12.3069 9.42847 15.8573 9.42847H22.2859" stroke="#181C3A" stroke-width="6" stroke-linecap="round" stroke-linejoin="round"/>
<path d="M25.5 31.9276C25.5 28.3772 28.3782 25.499 31.9286 25.499H64.0714C67.6219 25.499 70.5 28.3772 70.5 31.9276V64.0704C70.5 67.6211 67.6219 70.4992 64.0714 70.4992H31.9286C28.3782 70.4992 25.5 67.6211 25.5 64.0704V31.9276Z" stroke="#FED200" stroke-width="6" stroke-linecap="round" stroke-linejoin="round"/>
<path d="M86.5713 38.3569V57.6426" stroke="#181C3A" stroke-width="6" stroke-linecap="round" stroke-linejoin="round"/>
</svg>
