<svg width="96" height="96" viewBox="0 0 96 96" fill="none" xmlns="http://www.w3.org/2000/svg">
<path d="M76.9283 6.21423H19.0711C15.5208 6.21423 12.6426 9.0924 12.6426 12.6428V83.3571C12.6426 86.9076 15.5207 89.7857 19.0711 89.7857H76.9283C80.4788 89.7857 83.3569 86.9076 83.3569 83.3571V12.6428C83.3569 9.0924 80.4788 6.21423 76.9283 6.21423Z" stroke="#181C3A" stroke-width="6" stroke-linecap="round" stroke-linejoin="round"/>
<path d="M28.7139 89.7856L57.02 64.3101C59.2613 62.2929 62.6034 62.1046 65.057 63.8573L83.3567 76.9285" stroke="#181C3A" stroke-width="6" stroke-linecap="round" stroke-linejoin="round"/>
<path d="M12.6426 45.7856H83.3569" stroke="#181C3A" stroke-width="6" stroke-linecap="round" stroke-linejoin="round"/>
<path d="M28.7139 19.0714H47.9996" stroke="#FED200" stroke-width="6" stroke-linecap="round" stroke-linejoin="round"/>
<path d="M28.7139 31.9285H67.2853" stroke="#FED200" stroke-width="6" stroke-linecap="round" stroke-linejoin="round"/>
<path d="M28.7143 64.0714C30.4895 64.0714 31.9286 62.6323 31.9286 60.8571C31.9286 59.0819 30.4895 57.6428 28.7143 57.6428C26.9391 57.6428 25.5 59.0819 25.5 60.8571C25.5 62.6323 26.9391 64.0714 28.7143 64.0714Z" stroke="#FED200" stroke-width="6" stroke-linecap="round" stroke-linejoin="round"/>
</svg>
