<svg width="96" height="96" viewBox="0 0 96 96" fill="none" xmlns="http://www.w3.org/2000/svg">
<path d="M32.0788 86.2114C46.1478 86.2114 57.5531 74.806 57.5531 60.7372C57.5531 46.6681 46.1478 35.2629 32.0788 35.2629C18.0097 35.2629 6.60449 46.6681 6.60449 60.7372C6.60449 74.806 18.0097 86.2114 32.0788 86.2114Z" stroke="#181C3A" stroke-width="6.84" stroke-linecap="round" stroke-linejoin="round"/>
<path d="M63.9216 86.2114C77.9904 86.2114 89.3958 74.806 89.3958 60.7372C89.3958 46.6681 77.9904 35.2629 63.9216 35.2629C49.8525 35.2629 38.4473 46.6681 38.4473 60.7372C38.4473 74.806 49.8525 86.2114 63.9216 86.2114Z" stroke="#181C3A" stroke-width="6.84" stroke-linecap="round" stroke-linejoin="round"/>
<path d="M48.0007 60.7371C62.0697 60.7371 73.4749 49.3319 73.4749 35.2629C73.4749 21.1938 62.0697 9.78857 48.0007 9.78857C33.9316 9.78857 22.5264 21.1938 22.5264 35.2629C22.5264 49.3319 33.9316 60.7371 48.0007 60.7371Z" stroke="#FED200" stroke-width="6.84" stroke-linecap="round" stroke-linejoin="round"/>
</svg>
