<svg width="96" height="96" viewBox="0 0 96 96" fill="none" xmlns="http://www.w3.org/2000/svg">
<path d="M38.4541 79.8352L63.9206 54.3686H79.8428C83.3602 54.3686 86.2114 57.2199 86.2114 60.7372V79.8429C86.2114 83.3602 83.3602 86.2114 79.8428 86.2114H25.71C30.9224 86.2114 35.5497 83.7067 38.4541 79.8352Z" stroke="#181C3A" stroke-width="6.84" stroke-linecap="round" stroke-linejoin="round"/>
<path d="M41.6304 70.29V32.078L59.4167 14.2917C61.9038 11.8046 65.9362 11.8046 68.4231 14.2917L81.7067 27.5751C84.1936 30.0622 84.1936 34.0945 81.7067 36.5817L38.4531 79.8352C40.4483 77.1757 41.6304 73.8711 41.6304 70.29Z" stroke="#FED200" stroke-width="6.84" stroke-linecap="round" stroke-linejoin="round"/>
<path d="M35.2624 9.78857H16.1567C12.6394 9.78857 9.78809 12.6399 9.78809 16.1571V70.29C9.78809 79.0831 16.9164 86.2114 25.7095 86.2114C34.5027 86.2114 41.6309 79.0831 41.6309 70.29V16.1571C41.6309 12.6399 38.7796 9.78857 35.2624 9.78857Z" stroke="#181C3A" stroke-width="6.84" stroke-linecap="round" stroke-linejoin="round"/>
</svg>
