<svg width="96" height="96" viewBox="0 0 96 96" fill="none" xmlns="http://www.w3.org/2000/svg">
<path d="M83.0269 89.3957H22.5255C19.992 89.3957 17.5621 88.3895 15.7706 86.598C13.9791 84.8065 12.9727 82.3763 12.9727 79.8429C12.9727 77.3095 13.9791 74.8792 15.7706 73.0877C17.5621 71.2963 19.992 70.29 22.5255 70.29H76.6584C78.3473 70.29 79.9675 69.6188 81.1616 68.4247C82.3557 67.2306 83.0269 65.6105 83.0269 63.9215V12.9729C83.0269 11.2838 82.3557 9.66396 81.1616 8.46962C79.9675 7.27528 78.3473 6.60431 76.6584 6.60431H22.5255C20.0355 6.60342 17.6435 7.57484 15.8591 9.31162C14.0747 11.0484 13.0391 13.4133 12.9727 15.9024V79.5881" stroke="#181C3A" stroke-width="6.84" stroke-linecap="round" stroke-linejoin="round"/>
<path d="M38.4473 29.2364C38.4473 27.347 39.0075 25.5001 40.0572 23.9291C41.1069 22.3581 42.5989 21.1337 44.3444 20.4107C46.0899 19.6877 48.0107 19.4985 49.8638 19.8671C51.7169 20.2357 53.419 21.1455 54.755 22.4815C56.091 23.8175 57.0008 25.5196 57.3694 27.3727C57.7381 29.2258 57.5488 31.1466 56.8258 32.8921C56.1028 34.6377 54.8784 36.1296 53.3074 37.1793C51.7364 38.229 49.8895 38.7892 48.0001 38.7892V41.9735" stroke="#FED200" stroke-width="6.84" stroke-linecap="round" stroke-linejoin="round"/>
<path d="M47.9994 55.1087C47.1201 55.1087 46.4072 54.3958 46.4072 53.5165C46.4072 52.6372 47.1201 51.9244 47.9994 51.9244" stroke="#FED200" stroke-width="6.84" stroke-linecap="round" stroke-linejoin="round"/>
<path d="M47.999 55.1087C48.8783 55.1087 49.5912 54.3958 49.5912 53.5165C49.5912 52.6372 48.8783 51.9244 47.999 51.9244" stroke="#FED200" stroke-width="6.84" stroke-linecap="round" stroke-linejoin="round"/>
<path d="M76.6582 70.29V89.3958" stroke="#181C3A" stroke-width="6.84" stroke-linecap="round" stroke-linejoin="round"/>
</svg>
